<svg width="16" height="14" viewBox="0 0 16 14" fill="none" xmlns="http://www.w3.org/2000/svg">
<path d="M0.96172 5.87698C1.02719 5.86635 1.09344 5.86145 1.15973 5.86231L12.4474 5.86231L12.2013 5.74783C11.9607 5.63396 11.7418 5.47898 11.5545 5.28991L8.38913 2.12456C7.97224 1.72661 7.9022 1.08642 8.22313 0.607715C8.59666 0.0976028 9.31297 -0.0131556 9.82312 0.360368C9.86433 0.390562 9.90351 0.423475 9.94032 0.458892L15.6643 6.18285C16.1116 6.62968 16.112 7.35451 15.6652 7.80184C15.6649 7.80212 15.6646 7.80244 15.6643 7.80273L9.94032 13.5267C9.49263 13.9731 8.7678 13.9721 8.32133 13.5244C8.2862 13.4892 8.2534 13.4517 8.22313 13.4122C7.9022 12.9335 7.97224 12.2933 8.38913 11.8954L11.5487 8.72429C11.7167 8.55615 11.9098 8.41516 12.1211 8.30644L12.4646 8.15189L1.22273 8.15189C0.637923 8.17361 0.124841 7.76509 0.0149768 7.19027C-0.0862299 6.56618 0.33763 5.97822 0.96172 5.87698Z" fill="#2194FF"/>
</svg>
